<?xml version="1.0" standalone="no"?><!DOCTYPE svg PUBLIC "-//W3C//DTD SVG 1.1//EN" "http://www.w3.org/Graphics/SVG/1.1/DTD/svg11.dtd">
            <svg t="1562327314737" class="icon" viewBox="0 0 1225 1024" version="1.1" xmlns="http://www.w3.org/2000/svg"
              p-id="10449" width="128" height="128">
              <path
                d="M373.743577 159.446919h793.902152a57.400891 57.400891 0 1 0 0-114.801782H373.743577a57.400891 57.400891 0 0 0 0 114.801782z"
                fill="#424242" p-id="10450"></path>
              <path
                d="M102.046028 102.046028m-102.046028 0a102.046028 102.046028 0 1 0 204.092056 0 102.046028 102.046028 0 1 0-204.092056 0Z"
                fill="#424242" p-id="10451"></path>
              <path
                d="M1167.645729 454.599109H373.743577a57.400891 57.400891 0 1 0 0 114.801782h793.902152a57.400891 57.400891 0 0 0 0-114.801782z"
                fill="#424242" p-id="10452"></path>
              <path
                d="M102.046028 512m-102.046028 0a102.046028 102.046028 0 1 0 204.092056 0 102.046028 102.046028 0 1 0-204.092056 0Z"
                fill="#424242" p-id="10453"></path>
              <path
                d="M1167.645729 864.553081H373.743577a57.400891 57.400891 0 0 0 0 114.801782h793.902152a57.400891 57.400891 0 1 0 0-114.801782z"
                fill="#424242" p-id="10454"></path>
              <path
                d="M102.046028 921.953972m-102.046028 0a102.046028 102.046028 0 1 0 204.092056 0 102.046028 102.046028 0 1 0-204.092056 0Z"
                fill="#424242" p-id="10455"></path>
            </svg>
