<svg t="1562319325697" class="icon" viewBox="0 0 1024 1024" version="1.1" xmlns="http://www.w3.org/2000/svg"
              p-id="7138" width="200" height="200">
              <path
                d="M471.712988 856.801867a428.400933 428.400933 0 1 1 428.400933-428.400934 428.400933 428.400933 0 0 1-428.400933 428.400934zM471.712988 63.72385a365.308012 365.308012 0 1 0 365.308012 364.677083A364.677083 364.677083 0 0 0 471.712988 63.72385z"
                fill="#424242" p-id="7139"></path>
              <path
                d="M948.695471 1023.998107a29.653673 29.653673 0 0 1-22.082523-9.463938l-228.396374-228.396374a31.54646 31.54646 0 0 1 0-44.795974 31.54646 31.54646 0 0 1 44.165045 0l228.396374 228.396374a31.54646 31.54646 0 0 1 0 44.795974 29.653673 29.653673 0 0 1-22.082522 9.463938z"
                fill="#424242" p-id="7140"></path>
            </svg>
