<svg t="1562552041665" class="icon" viewBox="0 0 1024 1024" version="1.1" xmlns="http://www.w3.org/2000/svg" p-id="9138" width="200" height="200"><path d="M509.607936 821.085184a55.353344 55.353344 0 0 1-36.475904-13.723648l-56.12032-47.156224H231.144448c-41.628672 0-75.496448-33.871872-75.496448-75.49952V278.977536c0-41.628672 33.867776-75.496448 75.496448-75.496448h560.64c41.627648 0 75.49952 33.867776 75.49952 75.496448v405.72416c0 41.627648-33.871872 75.49952-75.49952 75.49952H600.22784l-53.260288 46.37184a55.37792 55.37792 0 0 1-37.359616 14.512128zM231.144448 253.81376c-13.876224 0-25.1648 11.287552-25.1648 25.163776v405.72416c0 13.879296 11.288576 25.167872 25.1648 25.167872h204.204032l70.8352 59.528192a5.154816 5.154816 0 0 0 6.93248-0.080896l0.560128-0.499712 67.716096-58.95168H791.78752c13.88032 0 25.168896-11.288576 25.168896-25.167872V278.977536c0-13.876224-11.288576-25.163776-25.168896-25.163776H231.144448z m0 0" fill="#666666" p-id="9139"></path><path d="M341.59616 535.881728c-25.375744 0-46.140416-20.764672-46.140416-46.140416s20.764672-46.13632 46.140416-46.13632c25.371648 0 46.13632 20.760576 46.13632 46.13632s-20.764672 46.140416-46.13632 46.140416z m169.868288 0c-25.376768 0-46.13632-20.764672-46.13632-46.140416s20.759552-46.13632 46.13632-46.13632c25.375744 0 46.135296 20.760576 46.135296 46.13632s-20.759552 46.140416-46.135296 46.140416z m169.867264 0c-25.375744 0-46.135296-20.764672-46.135296-46.140416s20.759552-46.13632 46.135296-46.13632c25.376768 0 46.140416 20.760576 46.140416 46.13632s-20.763648 46.140416-46.140416 46.140416z m0 0" fill="#666666" p-id="9140"></path></svg>
