<svg t="1562552130458" class="icon" viewBox="0 0 1024 1024" version="1.1" xmlns="http://www.w3.org/2000/svg" p-id="10065" width="200" height="200"><path d="M52.888609 1012.669935h-0.528516C32.243448 1012.141419 16.420996 995.361032 16.420996 974.451613l0.429419-532.380903c-0.231226-10.372129 4.096-20.48 12.155871-27.747097l9.414194-8.48929 15.393032-1.024c1.486452 0 3.005935 0.099097 4.52542 0.264258l1.849806 0.033032 118.222452-0.792774c134.606452-25.434839 215.76671-122.087226 219.631484-264.786581l-0.099097-1.75071a131.204129 131.204129 0 0 1-0.495484-10.53729c0-68.31071 57.310968-125.885935 125.159226-125.885935 30.554839 0 44.824774 0.495484 62.364903 12.387096 20.083613 13.675355 36.665806 38.548645 42.182193 63.421936 7.795613 29.894194 11.693419 64.016516 11.69342 103.159742 0 35.476645-9.744516 91.466323-28.96929 166.449548l241.036387 0.42942 0.231225-3.369291 37.788904 3.864774c40.002065 1.585548 78.022194 24.311742 99.724387 60.614194 13.939613 23.25471 20.248774 49.911742 18.266838 77.064258 0.033032 4.426323-0.165161 21.702194-96.883612 444.217806l-29.035355-5.549419 25.038451 15.128774-0.099096 0.198194 0.033032 0.033032-2.114065 3.699613a124.861935 124.861935 0 0 1-43.569548 49.779613 119.08129 119.08129 0 0 1-58.896516 19.621161l-747.982452 0.165161h-0.528516z m29.99329-541.596903l-0.363354 475.499355 716.866064-0.066064a52.52129 52.52129 0 0 0 24.311742-8.654452c9.116903-6.110968 16.384-14.567226 21.537032-25.236645l1.552516-2.807742c86.775742-379.210323 93.679484-423.671742 94.208-428.725678a65.403871 65.403871 0 0 0-9.017806-38.812903 57.773419 57.773419 0 0 0-47.764645-28.705032l-5.912774-0.660645c-5.714581 0.396387-11.693419 0.396387-17.606194 0.396387l-335.938065-0.594581 21.173678-82.349419c22.23071-86.676645 26.888258-129.420387 26.888258-149.999484 0-33.49471-3.237161-62.16671-9.843613-87.667613-2.411355-10.735484-9.51329-20.446968-15.128774-24.245677-3.336258-0.990968-19.257806-0.990968-25.236645-0.990968-31.479742 0-59.09471 27.879226-59.09471 59.656258 0 2.014968 0.132129 4.261161 0.363355 7.234065l0.165161 5.252129c-4.690581 175.731613-108.048516 298.512516-276.513032 330.157419l-20.645161 1.123097-84.001033 0.198193z m199.878194 305.317162a33.032258 33.032258 0 1 1 0-66.064517 33.032258 33.032258 0 0 1 0 66.064517z" fill="#999999" p-id="10066"></path><path d="M214.284222 413.696h66.064516v548.996129h-66.064516z" fill="#979797" p-id="10067"></path></svg>
