<svg t="1562551897254" class="icon" viewBox="0 0 1024 1024" version="1.1" xmlns="http://www.w3.org/2000/svg" p-id="8188" width="200" height="200"><path d="M24.32 871.168V236.672l4.48-3.968c3.584-3.2 88.832-78.336 242.56-78.336s238.464 75.136 242.048 78.336l4.48 3.968-7.296 633.344-13.696-13.312c-1.28-0.768-123.264-77.056-230.4-77.056s-219.648 76.032-220.8 76.8L24.32 871.168z m242.304-118.784c88.704 0 183.04 46.208 224.128 68.992v-572.16c-7.936-6.272-25.984-19.2-53.376-32-34.56-16.256-91.264-35.456-165.76-35.456-124.16 0-200.96 52.864-219.648 67.584v571.264c39.168-23.296 126.976-68.224 214.656-68.224z" fill="" p-id="8189"></path><path d="M488.704 883.2l-6.912-7.04c-16.64-9.984-124.032-72.064-215.424-72.064-97.28 0-201.472 68.864-207.104 72.576L0 917.76V225.664l12.672-11.264c2.56-2.304 27.008-23.68 70.912-44.16 57.088-26.752 120.32-40.192 187.904-40.192 67.584 0 130.688 13.568 187.648 40.32 42.496 19.968 66.304 40.32 70.656 44.288l12.8 11.392-9.728 639.872c-0.64 22.528-28.288 33.536-44.16 17.28zM266.624 727.936c72.96 0 147.584 28.16 199.68 53.376v-519.68c-8.704-5.888-21.888-14.08-39.296-22.272-32.256-15.104-85.376-33.152-155.52-33.152-101.632 0-169.472 38.144-195.328 55.552V779.52c48.896-24.576 118.912-51.584 190.464-51.584z" fill="" p-id="8190"></path><path d="M510.848 871.168l-4.864-25.856V236.672l4.48-3.968c3.584-3.2 88.832-78.336 242.56-78.336s238.464 75.136 242.048 78.336l4.48 3.968v633.344l-20.992-13.312c-1.28-0.768-123.264-77.056-230.4-77.056-106.88 0-219.648 76.032-220.8 76.8l-16.512 14.72z m237.44-118.784c88.704 0 183.04 46.208 224.128 68.992v-572.16c-7.936-6.272-25.984-19.2-53.376-32C884.48 200.96 827.776 181.76 753.28 181.76s-131.456 19.328-166.016 35.584c-27.392 12.8-45.696 25.856-53.632 32v571.264c39.168-23.296 126.976-68.224 214.656-68.224z" fill="" p-id="8191"></path><path d="M486.528 873.472l-4.864-25.984V225.664l12.672-11.264c2.56-2.304 27.008-23.68 70.912-44.16 57.088-26.752 120.32-40.192 187.904-40.192 67.584 0 130.688 13.568 187.648 40.32 42.496 19.968 66.304 40.32 70.656 44.288l12.672 11.264v688.64l-58.368-36.992c-4.864-2.944-120.192-73.344-217.472-73.344-93.056 0-192.896 63.232-205.952 71.808l-13.568 12.032c-14.976 13.056-38.528 4.992-42.24-14.592z m261.76-145.536c72.96 0 147.584 28.16 199.68 53.376v-519.68c-8.704-5.888-21.888-14.08-39.296-22.272-32.256-15.104-85.376-33.152-155.52-33.152-69.888 0-123.264 18.048-155.776 33.28-17.152 8.064-30.464 16.128-39.552 22.272V779.52c48.896-24.576 118.912-51.584 190.464-51.584z" fill="" p-id="8192"></path></svg>
